<?xml version="1.0" encoding="UTF-8"?>
<svg xmlns="http://www.w3.org/2000/svg" xmlns:xlink="http://www.w3.org/1999/xlink" width="456px" height="456px" viewBox="0 0 456 456" version="1.1">
<g id="surface1">
<path style=" stroke:none;fill-rule:nonzero;fill:rgb(0%,0%,0%);fill-opacity:1;" d="M 19 399 L 19 312.550781 L 47.5 312.550781 L 47.5 370.5 L 105.449219 370.5 L 105.449219 399 Z M 350.074219 399 L 350.074219 370.5 L 408.023438 370.5 L 408.023438 312.550781 L 436.523438 312.550781 L 436.523438 399 Z M 72.675781 346.273438 L 72.675781 109.25 L 110.675781 109.25 L 110.675781 346.273438 Z M 130.148438 346.273438 L 130.148438 109.25 L 150.101562 109.25 L 150.101562 346.273438 Z M 188.101562 346.273438 L 188.101562 109.25 L 227.523438 109.25 L 227.523438 346.273438 Z M 247.476562 346.273438 L 247.476562 109.25 L 304.949219 109.25 L 304.949219 346.273438 Z M 324.898438 346.273438 L 324.898438 109.25 L 344.851562 109.25 L 344.851562 346.273438 Z M 364.324219 346.273438 L 364.324219 109.25 L 382.375 109.25 L 382.375 346.273438 Z M 19 143.449219 L 19 57 L 105.449219 57 L 105.449219 85.5 L 47.5 85.5 L 47.5 143.449219 Z M 408.023438 143.449219 L 408.023438 85.5 L 350.074219 85.5 L 350.074219 57 L 436.523438 57 L 436.523438 143.449219 Z M 408.023438 143.449219 "/>
</g>
</svg>

